<mxfile host="Electron" agent="Mozilla/5.0 (Macintosh; Intel Mac OS X 10_15_7) AppleWebKit/537.36 (KHTML, like Gecko) draw.io/24.7.8 Chrome/128.0.6613.36 Electron/32.0.1 Safari/537.36" version="24.7.8">
  <diagram name="Page-1" id="5sfzbW5WqYGifv3yi1Ta">
    <mxGraphModel dx="1728" dy="958" grid="1" gridSize="10" guides="1" tooltips="1" connect="1" arrows="1" fold="1" page="1" pageScale="1" pageWidth="850" pageHeight="1100" math="0" shadow="0">
      <root>
        <mxCell id="0" />
        <mxCell id="1" parent="0" />
        <mxCell id="W1F6Wx6nJNxRu4szKEuM-1" value="&lt;div&gt;&lt;b&gt;HadesCI&lt;/b&gt;&lt;/div&gt;" style="html=1;dropTarget=0;whiteSpace=wrap;verticalAlign=top;fillColor=#ffe6cc;strokeColor=#d79b00;" parent="1" vertex="1">
          <mxGeometry x="150" y="210" width="780" height="220" as="geometry" />
        </mxCell>
        <mxCell id="W1F6Wx6nJNxRu4szKEuM-2" value="" style="shape=module;jettyWidth=8;jettyHeight=4;" parent="W1F6Wx6nJNxRu4szKEuM-1" vertex="1">
          <mxGeometry x="1" width="20" height="20" relative="1" as="geometry">
            <mxPoint x="-27" y="7" as="offset" />
          </mxGeometry>
        </mxCell>
        <mxCell id="W1F6Wx6nJNxRu4szKEuM-66" value="" style="html=1;dropTarget=0;whiteSpace=wrap;horizontal=1;verticalAlign=top;fillColor=#f5f5f5;fontColor=#333333;strokeColor=#666666;" parent="1" vertex="1">
          <mxGeometry x="585" y="249" width="335" height="160" as="geometry" />
        </mxCell>
        <mxCell id="W1F6Wx6nJNxRu4szKEuM-64" value="" style="html=1;dropTarget=0;whiteSpace=wrap;horizontal=1;verticalAlign=top;fillColor=#f5f5f5;fontColor=#333333;strokeColor=#666666;" parent="1" vertex="1">
          <mxGeometry x="579" y="254" width="331" height="160" as="geometry" />
        </mxCell>
        <mxCell id="W1F6Wx6nJNxRu4szKEuM-5" value="" style="rounded=0;orthogonalLoop=1;jettySize=auto;html=1;endArrow=oval;endFill=0;sketch=0;sourcePerimeterSpacing=0;targetPerimeterSpacing=0;endSize=10;edgeStyle=orthogonalEdgeStyle;" parent="1" source="W1F6Wx6nJNxRu4szKEuM-13" edge="1">
          <mxGeometry relative="1" as="geometry">
            <mxPoint x="80" y="325" as="sourcePoint" />
            <mxPoint x="90" y="270" as="targetPoint" />
            <Array as="points">
              <mxPoint x="120" y="300" />
              <mxPoint x="120" y="270" />
            </Array>
          </mxGeometry>
        </mxCell>
        <mxCell id="W1F6Wx6nJNxRu4szKEuM-6" value="Prometheus&lt;div&gt;Metric Service&lt;/div&gt;" style="edgeLabel;html=1;align=center;verticalAlign=middle;resizable=0;points=[];labelBackgroundColor=none;" parent="W1F6Wx6nJNxRu4szKEuM-5" vertex="1" connectable="0">
          <mxGeometry x="0.9668" y="-3" relative="1" as="geometry">
            <mxPoint y="-17" as="offset" />
          </mxGeometry>
        </mxCell>
        <mxCell id="W1F6Wx6nJNxRu4szKEuM-7" value="" style="rounded=0;orthogonalLoop=1;jettySize=auto;html=1;endArrow=oval;endFill=0;sketch=0;sourcePerimeterSpacing=0;targetPerimeterSpacing=0;endSize=10;edgeStyle=orthogonalEdgeStyle;exitX=-0.002;exitY=0.877;exitDx=0;exitDy=0;exitPerimeter=0;" parent="1" edge="1" source="W1F6Wx6nJNxRu4szKEuM-13">
          <mxGeometry relative="1" as="geometry">
            <mxPoint x="70" y="320" as="sourcePoint" />
            <mxPoint x="90" y="360" as="targetPoint" />
            <Array as="points">
              <mxPoint x="120" y="330" />
              <mxPoint x="120" y="360" />
            </Array>
          </mxGeometry>
        </mxCell>
        <mxCell id="W1F6Wx6nJNxRu4szKEuM-8" value="Job Status Service" style="edgeLabel;html=1;align=center;verticalAlign=middle;resizable=0;points=[];labelBackgroundColor=none;" parent="W1F6Wx6nJNxRu4szKEuM-7" vertex="1" connectable="0">
          <mxGeometry x="0.9668" y="-3" relative="1" as="geometry">
            <mxPoint x="-21" y="-12" as="offset" />
          </mxGeometry>
        </mxCell>
        <mxCell id="W1F6Wx6nJNxRu4szKEuM-11" value="&lt;b&gt;Build Agent&lt;/b&gt;" style="html=1;dropTarget=0;whiteSpace=wrap;horizontal=1;verticalAlign=top;fillColor=#f5f5f5;fontColor=#333333;strokeColor=#666666;" parent="1" vertex="1">
          <mxGeometry x="572.5" y="260" width="327.5" height="160" as="geometry" />
        </mxCell>
        <mxCell id="W1F6Wx6nJNxRu4szKEuM-12" value="" style="shape=module;jettyWidth=8;jettyHeight=4;" parent="W1F6Wx6nJNxRu4szKEuM-11" vertex="1">
          <mxGeometry x="1" width="20" height="20" relative="1" as="geometry">
            <mxPoint x="-27" y="7" as="offset" />
          </mxGeometry>
        </mxCell>
        <mxCell id="W1F6Wx6nJNxRu4szKEuM-13" value="&lt;div&gt;&lt;b&gt;Gateway&lt;/b&gt;&lt;/div&gt;" style="html=1;dropTarget=0;whiteSpace=wrap;" parent="1" vertex="1">
          <mxGeometry x="155" y="295" width="120" height="40" as="geometry" />
        </mxCell>
        <mxCell id="W1F6Wx6nJNxRu4szKEuM-14" value="" style="shape=module;jettyWidth=8;jettyHeight=4;" parent="W1F6Wx6nJNxRu4szKEuM-13" vertex="1">
          <mxGeometry x="1" width="20" height="20" relative="1" as="geometry">
            <mxPoint x="-27" y="7" as="offset" />
          </mxGeometry>
        </mxCell>
        <mxCell id="W1F6Wx6nJNxRu4szKEuM-15" value="&lt;b&gt;Queue&lt;/b&gt;" style="html=1;dropTarget=0;whiteSpace=wrap;" parent="1" vertex="1">
          <mxGeometry x="360" y="295" width="120" height="40" as="geometry" />
        </mxCell>
        <mxCell id="W1F6Wx6nJNxRu4szKEuM-16" value="" style="shape=module;jettyWidth=8;jettyHeight=4;" parent="W1F6Wx6nJNxRu4szKEuM-15" vertex="1">
          <mxGeometry x="1" width="20" height="20" relative="1" as="geometry">
            <mxPoint x="-27" y="7" as="offset" />
          </mxGeometry>
        </mxCell>
        <mxCell id="W1F6Wx6nJNxRu4szKEuM-17" value="&lt;b&gt;Scheduler&lt;/b&gt;" style="html=1;dropTarget=0;whiteSpace=wrap;verticalAlign=top;" parent="1" vertex="1">
          <mxGeometry x="580" y="295" width="130" height="95" as="geometry" />
        </mxCell>
        <mxCell id="W1F6Wx6nJNxRu4szKEuM-18" value="" style="shape=module;jettyWidth=8;jettyHeight=4;" parent="W1F6Wx6nJNxRu4szKEuM-17" vertex="1">
          <mxGeometry x="1" width="20" height="20" relative="1" as="geometry">
            <mxPoint x="-27" y="7" as="offset" />
          </mxGeometry>
        </mxCell>
        <mxCell id="W1F6Wx6nJNxRu4szKEuM-19" value="&lt;b&gt;Docker&amp;nbsp;&lt;/b&gt;&lt;div&gt;&lt;b&gt;Executor&lt;/b&gt;&lt;/div&gt;" style="html=1;dropTarget=0;whiteSpace=wrap;" parent="1" vertex="1">
          <mxGeometry x="770" y="295" width="120" height="40" as="geometry" />
        </mxCell>
        <mxCell id="W1F6Wx6nJNxRu4szKEuM-20" value="" style="shape=module;jettyWidth=8;jettyHeight=4;" parent="W1F6Wx6nJNxRu4szKEuM-19" vertex="1">
          <mxGeometry x="1" width="20" height="20" relative="1" as="geometry">
            <mxPoint x="-27" y="7" as="offset" />
          </mxGeometry>
        </mxCell>
        <mxCell id="W1F6Wx6nJNxRu4szKEuM-21" value="" style="rounded=0;orthogonalLoop=1;jettySize=auto;html=1;endArrow=halfCircle;endFill=0;endSize=6;strokeWidth=1;sketch=0;exitX=1;exitY=0.5;exitDx=0;exitDy=0;edgeStyle=orthogonalEdgeStyle;" parent="1" source="W1F6Wx6nJNxRu4szKEuM-13" edge="1">
          <mxGeometry relative="1" as="geometry">
            <mxPoint x="430" y="430" as="sourcePoint" />
            <mxPoint x="320" y="315" as="targetPoint" />
          </mxGeometry>
        </mxCell>
        <mxCell id="W1F6Wx6nJNxRu4szKEuM-22" value="" style="rounded=0;orthogonalLoop=1;jettySize=auto;html=1;endArrow=oval;endFill=0;sketch=0;sourcePerimeterSpacing=0;targetPerimeterSpacing=0;endSize=10;exitX=0;exitY=0.5;exitDx=0;exitDy=0;edgeStyle=orthogonalEdgeStyle;" parent="1" source="W1F6Wx6nJNxRu4szKEuM-15" edge="1">
          <mxGeometry relative="1" as="geometry">
            <mxPoint x="260" y="365" as="sourcePoint" />
            <mxPoint x="320" y="315" as="targetPoint" />
          </mxGeometry>
        </mxCell>
        <mxCell id="W1F6Wx6nJNxRu4szKEuM-23" value="" style="ellipse;whiteSpace=wrap;html=1;align=center;aspect=fixed;fillColor=none;strokeColor=none;resizable=0;perimeter=centerPerimeter;rotatable=0;allowArrows=0;points=[];outlineConnect=1;" parent="1" vertex="1">
          <mxGeometry x="275" y="360" width="10" height="10" as="geometry" />
        </mxCell>
        <mxCell id="W1F6Wx6nJNxRu4szKEuM-24" value="" style="rounded=0;orthogonalLoop=1;jettySize=auto;html=1;endArrow=halfCircle;endFill=0;endSize=6;strokeWidth=1;sketch=0;exitX=0;exitY=0.5;exitDx=0;exitDy=0;edgeStyle=orthogonalEdgeStyle;" parent="1" source="W1F6Wx6nJNxRu4szKEuM-17" edge="1">
          <mxGeometry relative="1" as="geometry">
            <mxPoint x="530" y="315" as="sourcePoint" />
            <mxPoint x="530" y="315" as="targetPoint" />
            <Array as="points">
              <mxPoint x="560" y="343" />
              <mxPoint x="560" y="315" />
            </Array>
          </mxGeometry>
        </mxCell>
        <mxCell id="W1F6Wx6nJNxRu4szKEuM-25" value="" style="rounded=0;orthogonalLoop=1;jettySize=auto;html=1;endArrow=oval;endFill=0;sketch=0;sourcePerimeterSpacing=0;targetPerimeterSpacing=0;endSize=10;exitX=1;exitY=0.5;exitDx=0;exitDy=0;edgeStyle=orthogonalEdgeStyle;" parent="1" source="W1F6Wx6nJNxRu4szKEuM-15" target="W1F6Wx6nJNxRu4szKEuM-26" edge="1">
          <mxGeometry relative="1" as="geometry">
            <mxPoint x="490" y="315" as="sourcePoint" />
          </mxGeometry>
        </mxCell>
        <mxCell id="W1F6Wx6nJNxRu4szKEuM-26" value="" style="ellipse;whiteSpace=wrap;html=1;align=center;aspect=fixed;fillColor=none;strokeColor=none;resizable=0;perimeter=centerPerimeter;rotatable=0;allowArrows=0;points=[];outlineConnect=1;" parent="1" vertex="1">
          <mxGeometry x="525" y="310" width="10" height="10" as="geometry" />
        </mxCell>
        <mxCell id="W1F6Wx6nJNxRu4szKEuM-27" value="" style="endArrow=none;dashed=1;endFill=0;endSize=12;html=1;rounded=0;exitX=0;exitY=0.5;exitDx=0;exitDy=0;edgeStyle=orthogonalEdgeStyle;startArrow=classic;startFill=1;" parent="1" source="W1F6Wx6nJNxRu4szKEuM-19" target="W1F6Wx6nJNxRu4szKEuM-17" edge="1">
          <mxGeometry width="160" relative="1" as="geometry">
            <mxPoint x="650" y="330" as="sourcePoint" />
            <mxPoint x="490" y="330" as="targetPoint" />
            <Array as="points">
              <mxPoint x="720" y="315" />
              <mxPoint x="720" y="315" />
            </Array>
          </mxGeometry>
        </mxCell>
        <mxCell id="W1F6Wx6nJNxRu4szKEuM-28" value="Enqueue API" style="text;html=1;align=center;verticalAlign=middle;whiteSpace=wrap;rounded=0;" parent="1" vertex="1">
          <mxGeometry x="285" y="327.5" width="60" height="30" as="geometry" />
        </mxCell>
        <mxCell id="W1F6Wx6nJNxRu4szKEuM-29" value="Dequeue API" style="text;html=1;align=center;verticalAlign=middle;whiteSpace=wrap;rounded=0;" parent="1" vertex="1">
          <mxGeometry x="500" y="325" width="60" height="30" as="geometry" />
        </mxCell>
        <mxCell id="W1F6Wx6nJNxRu4szKEuM-30" value="" style="rounded=0;orthogonalLoop=1;jettySize=auto;html=1;endArrow=oval;endFill=0;sketch=0;sourcePerimeterSpacing=0;targetPerimeterSpacing=0;endSize=10;edgeStyle=orthogonalEdgeStyle;" parent="1" source="W1F6Wx6nJNxRu4szKEuM-13" edge="1">
          <mxGeometry relative="1" as="geometry">
            <mxPoint x="470" y="395" as="sourcePoint" />
            <mxPoint x="90" y="315" as="targetPoint" />
            <Array as="points" />
          </mxGeometry>
        </mxCell>
        <mxCell id="W1F6Wx6nJNxRu4szKEuM-31" value="" style="ellipse;whiteSpace=wrap;html=1;align=center;aspect=fixed;fillColor=none;strokeColor=none;resizable=0;perimeter=centerPerimeter;rotatable=0;allowArrows=0;points=[];outlineConnect=1;" parent="1" vertex="1">
          <mxGeometry x="485" y="390" width="10" height="10" as="geometry" />
        </mxCell>
        <mxCell id="W1F6Wx6nJNxRu4szKEuM-32" value="Job Service" style="text;html=1;align=center;verticalAlign=middle;whiteSpace=wrap;rounded=0;fontSize=11;" parent="1" vertex="1">
          <mxGeometry x="50" y="290" width="70" height="14" as="geometry" />
        </mxCell>
        <mxCell id="W1F6Wx6nJNxRu4szKEuM-35" style="edgeStyle=orthogonalEdgeStyle;rounded=0;orthogonalLoop=1;jettySize=auto;html=1;dashed=1;" parent="1" source="W1F6Wx6nJNxRu4szKEuM-36" target="W1F6Wx6nJNxRu4szKEuM-19" edge="1">
          <mxGeometry relative="1" as="geometry">
            <Array as="points">
              <mxPoint x="850" y="380" />
            </Array>
          </mxGeometry>
        </mxCell>
        <mxCell id="W1F6Wx6nJNxRu4szKEuM-36" value="&lt;font style=&quot;font-size: 9px;&quot;&gt;&amp;lt;&amp;lt;FluentBit&amp;gt;&amp;gt;&lt;/font&gt;&lt;div&gt;&lt;b&gt;Docker Driver&lt;/b&gt;&lt;/div&gt;" style="html=1;dropTarget=0;whiteSpace=wrap;" parent="1" vertex="1">
          <mxGeometry x="770" y="360" width="120" height="40" as="geometry" />
        </mxCell>
        <mxCell id="W1F6Wx6nJNxRu4szKEuM-37" value="" style="shape=module;jettyWidth=8;jettyHeight=4;" parent="W1F6Wx6nJNxRu4szKEuM-36" vertex="1">
          <mxGeometry x="1" width="20" height="20" relative="1" as="geometry">
            <mxPoint x="-23" y="3" as="offset" />
          </mxGeometry>
        </mxCell>
        <mxCell id="W1F6Wx6nJNxRu4szKEuM-41" value="" style="ellipse;whiteSpace=wrap;html=1;align=center;aspect=fixed;fillColor=none;strokeColor=none;resizable=0;perimeter=centerPerimeter;rotatable=0;allowArrows=0;points=[];outlineConnect=1;" parent="1" vertex="1">
          <mxGeometry x="750" y="470" width="10" height="10" as="geometry" />
        </mxCell>
        <mxCell id="W1F6Wx6nJNxRu4szKEuM-45" value="" style="rounded=0;orthogonalLoop=1;jettySize=auto;html=1;endArrow=oval;endFill=0;sketch=0;sourcePerimeterSpacing=0;targetPerimeterSpacing=0;endSize=10;edgeStyle=orthogonalEdgeStyle;fontStyle=4" parent="1" source="W1F6Wx6nJNxRu4szKEuM-15" edge="1">
          <mxGeometry relative="1" as="geometry">
            <mxPoint x="400" y="239.99689655172415" as="sourcePoint" />
            <mxPoint x="420" y="260" as="targetPoint" />
          </mxGeometry>
        </mxCell>
        <mxCell id="W1F6Wx6nJNxRu4szKEuM-46" value="Monitoring Service" style="edgeLabel;html=1;align=center;verticalAlign=middle;resizable=0;points=[];labelBackgroundColor=none;" parent="W1F6Wx6nJNxRu4szKEuM-45" vertex="1" connectable="0">
          <mxGeometry x="0.627" relative="1" as="geometry">
            <mxPoint x="60" y="-8" as="offset" />
          </mxGeometry>
        </mxCell>
        <mxCell id="W1F6Wx6nJNxRu4szKEuM-61" value="&lt;font style=&quot;font-size: 9px;&quot;&gt;&amp;lt;&amp;lt;FluentBit&amp;gt;&amp;gt;&lt;/font&gt;&lt;br&gt;&lt;b&gt;Logging&amp;nbsp;&lt;/b&gt;&lt;div&gt;&lt;div&gt;&lt;b&gt;Agent&lt;/b&gt;&lt;/div&gt;&lt;/div&gt;" style="html=1;dropTarget=0;whiteSpace=wrap;" parent="1" vertex="1">
          <mxGeometry x="590" y="330" width="110" height="50" as="geometry" />
        </mxCell>
        <mxCell id="W1F6Wx6nJNxRu4szKEuM-62" value="" style="shape=module;jettyWidth=8;jettyHeight=4;" parent="W1F6Wx6nJNxRu4szKEuM-61" vertex="1">
          <mxGeometry x="1" width="20" height="20" relative="1" as="geometry">
            <mxPoint x="-23" y="3" as="offset" />
          </mxGeometry>
        </mxCell>
        <mxCell id="TGGplu-Eh7ez0T3sZZmc-2" value="" style="rounded=0;orthogonalLoop=1;jettySize=auto;html=1;endArrow=oval;endFill=0;sketch=0;sourcePerimeterSpacing=0;targetPerimeterSpacing=0;endSize=10;edgeStyle=orthogonalEdgeStyle;exitX=0.5;exitY=1;exitDx=0;exitDy=0;" parent="1" source="W1F6Wx6nJNxRu4szKEuM-17" edge="1">
          <mxGeometry relative="1" as="geometry">
            <mxPoint x="651" y="390" as="sourcePoint" />
            <mxPoint x="736" y="480" as="targetPoint" />
            <Array as="points">
              <mxPoint x="645" y="450" />
              <mxPoint x="736" y="450" />
            </Array>
          </mxGeometry>
        </mxCell>
        <mxCell id="TGGplu-Eh7ez0T3sZZmc-3" value="" style="rounded=0;orthogonalLoop=1;jettySize=auto;html=1;endArrow=none;endFill=0;sketch=0;sourcePerimeterSpacing=0;targetPerimeterSpacing=0;endSize=10;edgeStyle=orthogonalEdgeStyle;exitX=0.5;exitY=1;exitDx=0;exitDy=0;" parent="1" source="W1F6Wx6nJNxRu4szKEuM-36" edge="1">
          <mxGeometry relative="1" as="geometry">
            <mxPoint x="826" y="400" as="sourcePoint" />
            <mxPoint x="736" y="470" as="targetPoint" />
            <Array as="points">
              <mxPoint x="830" y="450" />
              <mxPoint x="736" y="450" />
            </Array>
          </mxGeometry>
        </mxCell>
        <mxCell id="TGGplu-Eh7ez0T3sZZmc-4" value="Logging Service" style="text;html=1;align=center;verticalAlign=middle;whiteSpace=wrap;rounded=0;" parent="1" vertex="1">
          <mxGeometry x="740" y="465" width="60" height="30" as="geometry" />
        </mxCell>
      </root>
    </mxGraphModel>
  </diagram>
</mxfile>
